<?xml version="1.0" encoding="UTF-8"?>
<svg version="1.1" xmlns="http://www.w3.org/2000/svg" width="1254" height="1254">
<path d="M0 0 C413.82 0 827.64 0 1254 0 C1254 413.82 1254 827.64 1254 1254 C840.18 1254 426.36 1254 0 1254 C0 840.18 0 426.36 0 0 Z " fill="#FDFDFD" transform="translate(0,0)"/>
<path d="M0 0 C7.52663818 -0.25315989 14.10121392 0.89974617 21.26953125 3.1484375 C22.06617188 3.39207031 22.8628125 3.63570312 23.68359375 3.88671875 C29.55466362 5.95828354 34.65376218 9.13286258 39.86523438 12.47460938 C47.30937382 17.23485281 54.91271145 21.71798846 62.51953125 26.2109375 C73.1219027 32.47993366 83.68931888 38.80088263 94.20703125 45.2109375 C102.00080272 49.96017507 109.80950767 54.67402497 117.69433594 59.27050781 C124.49819671 63.25187876 131.22439047 67.36082132 137.95703125 71.4609375 C149.12154664 78.25834639 160.33813429 84.96101446 171.60742188 91.58349609 C185.78245516 99.91639809 199.91844872 108.31215603 214.0078125 116.7890625 C216.13518358 118.06768968 218.2643649 119.34322393 220.39453125 120.6171875 C226.10281383 124.03193798 231.79856917 127.46389304 237.45703125 130.9609375 C248.97252085 138.06446844 260.59877047 144.98519375 272.25 151.86328125 C274.38308811 153.12415887 276.51605836 154.38523571 278.64901733 155.64633179 C280.71480532 156.86612333 282.78277347 158.08215573 284.85083008 159.2980957 C313.72200034 176.3301969 338.50383944 196.54237287 347.7726901 230.13331525 C350.52491172 241.29596362 350.56325083 252.99256969 350.53695679 264.4156189 C350.54070433 265.98815045 350.54531018 267.56068014 350.55068743 269.13320696 C350.56279593 273.4063278 350.56267153 277.67936965 350.56029868 281.95250368 C350.55988742 286.57975217 350.57095869 291.20697635 350.58041382 295.83421326 C350.59695628 304.88058099 350.60252023 313.92692265 350.60363857 322.97330426 C350.60459196 330.33118145 350.60871669 337.6890501 350.61503983 345.04692459 C350.63263131 365.94481494 350.6418816 386.84268482 350.64037888 407.74058263 C350.64029897 408.86485247 350.64021905 409.98912231 350.64013672 411.14746094 C350.64005496 412.27311555 350.6399732 413.39877017 350.63988896 414.55853553 C350.63907594 432.80363107 350.65822313 451.04864409 350.68641345 469.29371576 C350.71518448 488.06382106 350.72895153 506.83388615 350.7272259 525.60401404 C350.72656361 536.12760957 350.73198547 546.65111849 350.753582 557.17469406 C350.77184909 566.13260591 350.77609565 575.09039185 350.76256315 584.04831432 C350.75606224 588.61164408 350.75581157 593.17473265 350.77326965 597.73803902 C350.92347806 639.62119803 350.92347806 639.62119803 341.64453125 657.9609375 C341.21503174 658.83621094 340.78553223 659.71148438 340.34301758 660.61328125 C335.37501027 670.41021696 329.08795336 678.43221699 321.26953125 686.1484375 C320.76550781 686.71046875 320.26148438 687.2725 319.7421875 687.8515625 C310.75556941 697.70945936 297.36974973 703.93621228 286.01171875 710.7109375 C279.40921105 714.65426366 272.8398985 718.65191586 266.26953125 722.6484375 C258.13994781 727.59253205 250.00035374 732.51848961 241.83203125 737.3984375 C234.21917073 741.9487955 226.67255989 746.59969814 219.14086914 751.28295898 C212.21404609 755.58278907 205.23608483 759.79203069 198.23754883 763.97387695 C192.59156689 767.34885569 186.98145747 770.77503274 181.38671875 774.234375 C177.96628073 776.33464396 174.52691491 778.40112409 171.08203125 780.4609375 C162.44088642 785.62971358 153.85553337 790.88874039 145.26953125 796.1484375 C133.21381397 803.53364665 121.12416266 810.85674111 108.98828125 818.109375 C101.20935007 822.76602876 93.45483377 827.46198968 85.70773315 832.17138672 C57.96319065 849.03431559 57.96319065 849.03431559 44.26953125 857.1484375 C43.45967773 857.62845215 42.64982422 858.1084668 41.81542969 858.60302734 C25.51038544 868.20597669 10.30867628 873.99079334 -8.87109375 870.02734375 C-19.72313089 866.6916766 -29.00651034 860.55103267 -34.734375 850.703125 C-38.46787644 843.63316528 -40.82423354 837.6520922 -40.9074707 829.61474609 C-40.92030594 828.52946625 -40.93314117 827.4441864 -40.94636536 826.32601929 C-40.95375229 825.16140167 -40.96113922 823.99678406 -40.96875 822.796875 C-40.98085762 820.98215195 -40.98085762 820.98215195 -40.99320984 819.13076782 C-41.00702962 816.57042871 -41.01776117 814.01007133 -41.02563477 811.44970703 C-41.03714357 808.84288094 -41.05757765 806.2360782 -41.0871582 803.62939453 C-41.13001552 799.85172598 -41.14603071 796.07475708 -41.15625 792.296875 C-41.17375809 791.14440277 -41.19126617 789.99193054 -41.20930481 788.80453491 C-41.18099677 778.12027025 -38.49409363 769.81627057 -32 761.31640625 C-25.7771755 755.37205583 -17.83196345 751.41377046 -10.35546875 747.2734375 C-1.67457667 742.41854992 6.91531659 737.4314971 15.45703125 732.3359375 C24.73819036 726.80412963 34.06592098 721.36649631 43.45703125 716.0234375 C55.13139086 709.3801887 66.75116338 702.6484235 78.34277344 695.86181641 C83.27461188 692.9746257 88.20910455 690.0919893 93.14453125 687.2109375 C94.12462158 686.63875488 95.10471191 686.06657227 96.11450195 685.47705078 C103.63142386 681.09325203 111.16687685 676.74212691 118.70703125 672.3984375 C122.89537272 669.98322644 127.08286177 667.56654568 131.26953125 665.1484375 C132.12788574 664.6529541 132.98624023 664.1574707 133.87060547 663.64697266 C138.69590952 660.85606795 143.50172892 658.03660052 148.26953125 655.1484375 C148.85959961 654.79201172 149.44966797 654.43558594 150.05761719 654.06835938 C160.05190432 647.960427 165.45992294 642.61742943 168.26953125 631.1484375 C168.67342826 627.46645357 168.68632467 623.82113029 168.66825867 620.11961365 C168.67490549 619.04203311 168.68155232 617.96445256 168.68840057 616.85421807 C168.70697925 613.26135725 168.70442866 609.66883096 168.7019043 606.07592773 C168.71092455 603.49334749 168.72125242 600.91077153 168.73278809 598.32820129 C168.7555256 592.77730629 168.76745079 587.22647383 168.77191734 581.6755352 C168.77839093 573.64994483 168.80134947 565.62446729 168.82826064 557.5989225 C168.87148345 544.57629952 168.9014759 531.55368131 168.9230957 518.53100586 C168.94411892 505.8848232 168.97140571 493.23867948 169.00708008 480.5925293 C169.0092789 479.81230097 169.01147773 479.03207264 169.01374318 478.22820102 C169.02481317 474.31380977 169.03600592 470.39941888 169.04725969 466.48502815 C169.14038097 434.03953035 169.21200848 401.59401825 169.26953125 369.1484375 C171.00275341 368.1979776 172.73660026 367.2486568 174.47070312 366.29980469 C175.91890442 365.50663849 175.91890442 365.50663849 177.3963623 364.69744873 C181.4733822 362.49940548 185.61439609 360.44368925 189.76953125 358.3984375 C197.51500487 354.5581332 205.19172771 350.60425606 212.82617188 346.54785156 C213.55513672 346.16081055 214.28410156 345.77376953 215.03515625 345.375 C215.66196289 345.04064941 216.28876953 344.70629883 216.93457031 344.36181641 C220.35873282 342.58242623 223.81478061 340.86751605 227.26953125 339.1484375 C227.36292155 331.68044289 227.43364157 324.21251013 227.47677994 316.74406147 C227.49750247 313.27471855 227.52553168 309.80578013 227.57128906 306.33666992 C227.62376311 302.33248398 227.64260276 298.3287113 227.66015625 294.32421875 C227.68080139 293.10076248 227.70144653 291.87730621 227.72271729 290.61677551 C227.72665074 275.25080193 222.53236992 262.57907109 212.36938477 251.1628418 C208.60684474 247.5534106 204.18955857 245.2075071 199.64453125 242.7109375 C197.49296364 241.49311623 195.34194595 240.27432302 193.19140625 239.0546875 C191.49854492 238.10335937 191.49854492 238.10335937 189.77148438 237.1328125 C184.3802565 234.09114256 179.05666742 230.93368651 173.72485352 227.78948975 C163.89720261 221.99835932 154.0340918 216.27074269 144.14453125 210.5859375 C134.16861951 204.85058577 124.25987856 199.00889832 114.37011719 193.12646484 C106.74402814 188.59716995 99.08393241 184.13181617 91.39453125 179.7109375 C82.07903679 174.35516662 72.78777823 168.96042005 63.51953125 163.5234375 C62.90665253 163.16390991 62.2937738 162.80438232 61.662323 162.43395996 C52.8599079 157.26847958 44.07124619 152.07990838 35.28833008 146.88134766 C28.77521359 143.02956243 22.24445558 139.20879428 15.70703125 135.3984375 C14.73266113 134.82891357 13.75829102 134.25938965 12.75439453 133.67260742 C7.70949296 130.72574299 2.65713637 127.79322651 -2.41389465 124.89160156 C-5.02953513 123.3928064 -7.64026994 121.88558597 -10.25045776 120.37731934 C-11.50829546 119.65320135 -12.76826513 118.93277154 -14.0305481 118.21643066 C-24.6822281 112.16859596 -34.97489212 105.97368831 -39.73046875 94.1484375 C-40.59925341 90.51663915 -40.86593382 87.12895998 -40.89160156 83.39941406 C-40.90120911 82.26763733 -40.91081665 81.1358606 -40.92071533 79.9697876 C-40.92496521 78.75514832 -40.92921509 77.54050903 -40.93359375 76.2890625 C-40.93929382 75.03011169 -40.9449939 73.77116089 -40.9508667 72.47406006 C-40.96030668 69.81112052 -40.96720863 67.14829338 -40.97070312 64.48535156 C-40.97617443 61.09517147 -41.00018529 57.7053957 -41.02867508 54.31534195 C-41.05193163 51.05661342 -41.05375974 47.79786234 -41.05859375 44.5390625 C-41.07094055 43.33252014 -41.08328735 42.12597778 -41.0960083 40.88287354 C-41.06436167 28.81531247 -38.18278102 21.10161419 -30.01953125 12.3046875 C-21.56663298 4.17278536 -11.44990356 0.62245542 0 0 Z " fill="#02C0AF" transform="translate(694.73046875,186.8515625)"/>
<path d="M0 0 C7.26439897 6.01003579 12.31028759 13.69699585 14.2265625 23.02734375 C14.33623413 24.83717575 14.39503934 26.65039114 14.41943359 28.46337891 C14.44352798 30.09625351 14.44352798 30.09625351 14.46810913 31.76211548 C14.51280243 36.74325797 14.55363605 41.72426996 14.57666016 46.70556641 C14.59319451 49.32609961 14.62045069 51.94658819 14.65869141 54.56689453 C14.71369962 58.35863485 14.73537373 62.14931961 14.75 65.94140625 C14.77266937 67.10217682 14.79533875 68.26294739 14.81869507 69.45889282 C14.7949012 78.70495475 12.22271646 86.60045238 5.90673828 93.59130859 C1.76650396 97.12993955 -3.12057377 99.65760917 -7.8359375 102.33984375 C-9.66281708 103.39678541 -11.4871309 104.45806525 -13.31134033 105.51960754 C-14.57228205 106.25312374 -15.83397015 106.9853583 -17.09637451 107.71635437 C-23.09365512 111.19373977 -29.01370388 114.79194935 -34.9262085 118.41101074 C-46.45072802 125.46287147 -58.06328785 132.3538296 -69.74365234 139.14428711 C-76.41868006 143.03190375 -83.02660571 147.00917213 -89.59545898 151.07348633 C-94.72177433 154.22520345 -99.90347813 157.28163496 -105.0859375 160.33984375 C-106.85056683 161.38309459 -108.61493005 162.42679456 -110.37928772 163.47050476 C-111.6120715 164.1997279 -112.84493159 164.92882203 -114.0778656 165.65779114 C-121.21113759 169.87574048 -128.33605581 174.1077426 -135.4609375 178.33984375 C-138.16403979 179.94535073 -140.86716909 181.55081224 -143.5703125 183.15625 C-144.24462311 183.55675064 -144.91893372 183.95725128 -145.61367798 184.36988831 C-150.42107963 187.22494329 -155.2298384 190.0777037 -160.0390625 192.9296875 C-162.76312323 194.54540035 -165.48706891 196.161307 -168.2109375 197.77734375 C-169.21318863 198.37192383 -169.21318863 198.37192383 -170.23568726 198.97851562 C-180.11012981 204.83776209 -189.96165117 210.73361948 -199.79516602 216.66137695 C-204.92701799 219.74736921 -210.07787238 222.79394983 -215.265625 225.78515625 C-216.87050781 226.71171021 -216.87050781 226.71171021 -218.5078125 227.65698242 C-220.51757019 228.81387419 -222.53032467 229.96558511 -224.546875 231.1105957 C-241.70417443 240.98297086 -254.17539479 251.10435423 -259.94717479 270.54021776 C-261.23168265 275.96130318 -261.33286477 281.17039541 -261.29483032 286.72029114 C-261.30248142 287.92884111 -261.31013251 289.13739107 -261.31801546 290.38256377 C-261.33493944 293.69747731 -261.33426421 297.01149194 -261.32565427 300.32637703 C-261.32068298 303.91685459 -261.33879332 307.50723173 -261.35372925 311.09767151 C-261.37912632 318.11646645 -261.38282282 325.13510803 -261.37812872 332.15394119 C-261.37455111 337.86384658 -261.37808567 343.5737057 -261.38657761 349.28360558 C-261.38776798 350.09873157 -261.38895836 350.91385756 -261.39018481 351.75368434 C-261.39260852 353.4100447 -261.39503679 355.06640506 -261.39746957 356.72276541 C-261.41918338 372.22903422 -261.41491329 387.73521588 -261.40269987 403.24148955 C-261.39236524 417.39812345 -261.414869 431.55448195 -261.45289631 445.7110614 C-261.49172766 460.27969608 -261.50815207 474.84820073 -261.50064981 489.41688746 C-261.49683692 497.58302326 -261.50169123 505.74892476 -261.53007889 513.91501808 C-261.55400405 520.86722016 -261.55660838 527.81904372 -261.53249855 534.77125148 C-261.52078825 538.31171088 -261.51833073 541.85147967 -261.54250336 545.39189148 C-261.67440121 566.12740054 -259.87791009 582.91362673 -245.84375 599.27734375 C-238.33703919 606.75734028 -228.78058406 611.42225497 -219.57568359 616.47900391 C-215.11280776 618.94490028 -210.69502109 621.48839727 -206.2734375 624.02734375 C-204.51716769 625.03167086 -202.76065697 626.03557682 -201.00390625 627.0390625 C-200.13685059 627.5345459 -199.26979492 628.0300293 -198.37646484 628.54052734 C-195.81792675 630.00193205 -193.25867581 631.46208044 -190.69921875 632.921875 C-180.08768111 638.97630434 -169.49806498 645.06763998 -158.91918945 651.17895508 C-150.88353951 655.81786895 -142.83216147 660.42869807 -134.7734375 665.02734375 C-114.36652542 676.67482325 -94.02787785 688.4378299 -73.74121094 700.29345703 C-69.75423119 702.62280305 -65.76561782 704.94934293 -61.77685547 707.27563477 C-59.77834155 708.44124502 -57.77996859 709.60709699 -55.78173828 710.77319336 C-50.73433265 713.71854272 -45.68519823 716.6608568 -40.6328125 719.59765625 C-28.58794599 726.603295 -16.59335684 733.68445312 -4.66479492 740.88647461 C-3.07025192 741.84830492 -1.47293839 742.80553998 0.125 743.76171875 C7.20527994 748.02567916 11.61007893 754.17789304 14.2265625 762.02734375 C14.33540845 764.0083061 14.38547056 765.99269459 14.40356445 767.9765625 C14.41639969 769.20213867 14.42923492 770.42771484 14.44245911 771.69042969 C14.45063165 773.0318969 14.45807439 774.37336872 14.46484375 775.71484375 C14.46891928 776.39341431 14.4729948 777.07198486 14.47719383 777.77111816 C14.49805033 781.36938164 14.51234851 784.96760715 14.52172852 788.56591797 C14.53273549 792.25648616 14.56706878 795.94644181 14.60690022 799.63679504 C14.63324866 802.4955546 14.64143677 805.35417296 14.64500999 808.21304321 C14.65216257 810.22634525 14.67853131 812.23955008 14.70539856 814.25268555 C14.6750905 827.21055398 11.27446762 836.45795686 2.484375 845.8984375 C-5.76721822 853.85899942 -17.72323874 858.00451059 -29.0859375 858.27734375 C-43.08316517 857.94958498 -54.21959487 853.41578447 -65.87353516 845.8894043 C-70.35002636 843.01499797 -74.90797635 840.27835094 -79.4609375 837.52734375 C-87.66983965 832.55155857 -95.83176015 827.50725991 -103.9609375 822.40234375 C-111.94575489 817.39142097 -119.97541904 812.47103359 -128.07299805 807.64477539 C-134.84373004 803.60291633 -141.5629258 799.4807987 -148.2734375 795.33984375 C-160.30885912 787.91539535 -172.38707941 780.56402138 -184.48129272 773.23590088 C-188.56023474 770.76405794 -192.63632917 768.28757288 -196.7109375 765.80859375 C-211.93149484 756.55044725 -227.18920948 747.35586131 -242.4730072 738.20249939 C-247.42923616 735.23423387 -252.38307689 732.26199893 -257.33657837 729.28918457 C-261.13071954 727.0123658 -264.92612115 724.73766965 -268.72265625 722.46484375 C-277.49864765 717.20876832 -286.27127052 711.94780782 -295.01171875 706.6328125 C-295.6132074 706.26709137 -296.21469604 705.90137024 -296.83441162 705.52456665 C-299.84204157 703.6952589 -302.84856215 701.86415038 -305.85400391 700.03125 C-311.60024647 696.53109866 -317.3691082 693.08421524 -323.21069336 689.74536133 C-330.67423685 685.46786351 -337.39338938 680.85478927 -343.7734375 675.02734375 C-344.62292969 674.2590625 -345.47242188 673.49078125 -346.34765625 672.69921875 C-362.14486451 657.70033802 -374.75840723 634.73480142 -375.95941031 612.59978247 C-376.03378548 608.49954469 -376.04525051 604.40360921 -376.03413391 600.30291748 C-376.0371582 598.71621466 -376.04104907 597.1295133 -376.04572648 595.54281449 C-376.05597966 591.20280533 -376.0538315 586.86287902 -376.04954588 582.52286315 C-376.04707375 577.83423844 -376.05609892 573.14563343 -376.06358337 568.45701599 C-376.07631931 559.2788158 -376.0781254 550.10064488 -376.07578311 540.92243734 C-376.07399839 533.45950092 -376.0757529 525.99657336 -376.08000755 518.533638 C-376.08060274 517.47052094 -376.08119793 516.40740389 -376.08181116 515.31207116 C-376.08302294 513.15216174 -376.08423707 510.99225231 -376.08545353 508.83234289 C-376.09632502 488.58537677 -376.09416855 468.33842731 -376.08806869 448.09146026 C-376.08290109 429.58463439 -376.09415152 411.07786118 -376.11316691 392.57104573 C-376.13255768 373.55254786 -376.14079905 354.53407488 -376.13704365 335.51556706 C-376.13513334 324.84447449 -376.13760257 314.17342672 -376.15175819 303.50234222 C-376.16368882 294.41682485 -376.16505809 285.33137985 -376.15296803 276.24586144 C-376.14709088 271.61425106 -376.14594756 266.98277296 -376.15797043 262.35117149 C-376.16886832 258.10341608 -376.16567976 253.85590277 -376.15170874 249.6081585 C-376.1490725 248.0792818 -376.15139428 246.55038588 -376.15944461 245.0215281 C-376.28233414 219.9221416 -367.46411168 196.83327169 -350.7734375 178.02734375 C-350.19464844 177.36605469 -349.61585938 176.70476562 -349.01953125 176.0234375 C-339.3655257 165.70220046 -327.15593828 158.46666582 -314.93212891 151.6340332 C-308.83963796 148.22742661 -302.87321288 144.67475734 -296.9609375 140.96484375 C-288.12301358 135.43237268 -279.18536004 130.08398538 -270.2109375 124.77734375 C-259.8833864 118.66860535 -249.58389395 112.5187791 -239.3359375 106.27734375 C-238.76132782 105.92740356 -238.18671814 105.57746338 -237.59469604 105.21691895 C-237.02260406 104.86850952 -236.45051208 104.5201001 -235.86108398 104.16113281 C-228.34936557 99.5870156 -220.8196045 95.04440713 -213.2734375 90.52734375 C-204.52431377 85.28910768 -195.79802817 80.01437552 -187.0859375 74.71484375 C-176.70644765 68.40115907 -166.30035449 62.13336589 -155.87728882 55.89190674 C-146.86265178 50.49307774 -137.87238878 45.05599192 -128.8984375 39.58984375 C-117.27441035 32.51163705 -105.58725316 25.54342878 -93.86962891 18.62133789 C-84.3735464 13.00733061 -74.95551247 7.27934738 -65.609375 1.41796875 C-44.51429466 -11.70994654 -21.29042198 -15.14318746 0 0 Z " fill="#336CF5" transform="translate(585.7734375,199.97265625)"/>
<path d="M0 0 C7.52663818 -0.25315989 14.10121392 0.89974617 21.26953125 3.1484375 C22.06617188 3.39207031 22.8628125 3.63570312 23.68359375 3.88671875 C29.55466362 5.95828354 34.65376218 9.13286258 39.86523438 12.47460938 C47.30937382 17.23485281 54.91271145 21.71798846 62.51953125 26.2109375 C73.1219027 32.47993366 83.68931888 38.80088263 94.20703125 45.2109375 C102.00080272 49.96017507 109.80950767 54.67402497 117.69433594 59.27050781 C124.49819671 63.25187876 131.22439047 67.36082132 137.95703125 71.4609375 C149.12154664 78.25834639 160.33813429 84.96101446 171.60742188 91.58349609 C185.78245516 99.91639809 199.91844872 108.31215603 214.0078125 116.7890625 C216.13518358 118.06768968 218.2643649 119.34322393 220.39453125 120.6171875 C226.10281383 124.03193798 231.79856917 127.46389304 237.45703125 130.9609375 C248.97252085 138.06446844 260.59877047 144.98519375 272.25 151.86328125 C274.38308811 153.12415887 276.51605836 154.38523571 278.64901733 155.64633179 C280.71480532 156.86612333 282.78277347 158.08215573 284.85083008 159.2980957 C313.75035504 176.34692431 338.52690412 196.56823326 347.77206421 230.19805908 C351.64440512 245.38002996 350.50846041 261.53520332 350.40686035 277.06079102 C350.38611014 280.57435678 350.37720536 284.08795265 350.3671875 287.6015625 C350.34597244 294.45059304 350.31200479 301.29950655 350.26953125 308.1484375 C347.85190996 306.86896255 345.43541823 305.58742971 343.01953125 304.3046875 C342.33761719 303.94407227 341.65570312 303.58345703 340.953125 303.21191406 C337.65110515 301.45671419 334.41831217 299.67046036 331.26953125 297.6484375 C325.29412048 294.71957095 316.53305269 294.70868278 310.30883789 296.81054688 C307.91396999 297.84030936 305.59685816 298.97330146 303.26953125 300.1484375 C302.1921167 300.68791016 301.11470215 301.22738281 300.00463867 301.78320312 C296.18309764 303.7113507 292.38185439 305.67792247 288.58203125 307.6484375 C287.90033875 308.0009256 287.21864624 308.3534137 286.51629639 308.71658325 C275.16019527 314.59038862 263.9140732 320.64779585 252.71240234 326.81103516 C248.72571531 328.99363275 244.72001828 331.13965828 240.70703125 333.2734375 C240.02205566 333.64009521 239.33708008 334.00675293 238.63134766 334.38452148 C235.23666593 336.18329877 231.84632637 337.75378926 228.26953125 339.1484375 C228.26588562 338.43814896 228.26223999 337.72786041 228.25848389 336.99604797 C228.22034336 330.24514121 228.16320086 323.49462235 228.08562851 316.74406147 C228.04640933 313.27491398 228.01409782 309.80601059 227.99853516 306.33666992 C227.98024947 302.33212186 227.93018949 298.3284813 227.87890625 294.32421875 C227.87706329 292.48903435 227.87706329 292.48903435 227.87518311 290.61677551 C227.61869579 275.26493539 222.54425076 262.59241702 212.36938477 251.1628418 C208.60684474 247.5534106 204.18955857 245.2075071 199.64453125 242.7109375 C197.49296364 241.49311623 195.34194595 240.27432302 193.19140625 239.0546875 C191.49854492 238.10335937 191.49854492 238.10335937 189.77148438 237.1328125 C184.3802565 234.09114256 179.05666742 230.93368651 173.72485352 227.78948975 C163.89720261 221.99835932 154.0340918 216.27074269 144.14453125 210.5859375 C134.16861951 204.85058577 124.25987856 199.00889832 114.37011719 193.12646484 C106.74402814 188.59716995 99.08393241 184.13181617 91.39453125 179.7109375 C82.07903679 174.35516662 72.78777823 168.96042005 63.51953125 163.5234375 C62.90665253 163.16390991 62.2937738 162.80438232 61.662323 162.43395996 C52.8599079 157.26847958 44.07124619 152.07990838 35.28833008 146.88134766 C28.77521359 143.02956243 22.24445558 139.20879428 15.70703125 135.3984375 C14.73266113 134.82891357 13.75829102 134.25938965 12.75439453 133.67260742 C7.70949296 130.72574299 2.65713637 127.79322651 -2.41389465 124.89160156 C-5.02953513 123.3928064 -7.64026994 121.88558597 -10.25045776 120.37731934 C-11.50829546 119.65320135 -12.76826513 118.93277154 -14.0305481 118.21643066 C-24.6822281 112.16859596 -34.97489212 105.97368831 -39.73046875 94.1484375 C-40.59925341 90.51663915 -40.86593382 87.12895998 -40.89160156 83.39941406 C-40.90120911 82.26763733 -40.91081665 81.1358606 -40.92071533 79.9697876 C-40.92496521 78.75514832 -40.92921509 77.54050903 -40.93359375 76.2890625 C-40.93929382 75.03011169 -40.9449939 73.77116089 -40.9508667 72.47406006 C-40.96030668 69.81112052 -40.96720863 67.14829338 -40.97070312 64.48535156 C-40.97617443 61.09517147 -41.00018529 57.7053957 -41.02867508 54.31534195 C-41.05193163 51.05661342 -41.05375974 47.79786234 -41.05859375 44.5390625 C-41.07094055 43.33252014 -41.08328735 42.12597778 -41.0960083 40.88287354 C-41.06436167 28.81531247 -38.18278102 21.10161419 -30.01953125 12.3046875 C-21.56663298 4.17278536 -11.44990356 0.62245542 0 0 Z " fill="#18263C" transform="translate(694.73046875,186.8515625)"/>
<path d="M0 0 C0.09375282 7.51202424 0.16428763 15.02398593 0.20724869 22.5364666 C0.22789501 26.02696652 0.25577604 29.51705882 0.30175781 33.00732422 C0.55383235 52.69339517 0.44724471 70.88130505 -8.625 88.8125 C-9.05449951 89.68777344 -9.48399902 90.56304688 -9.92651367 91.46484375 C-14.89452098 101.26177946 -21.18157789 109.28377949 -29 117 C-29.50402344 117.56203125 -30.00804687 118.1240625 -30.52734375 118.703125 C-39.51396184 128.56102186 -52.89978152 134.78777478 -64.2578125 141.5625 C-70.8603202 145.50582616 -77.42963275 149.50347836 -84 153.5 C-92.12958344 158.44409455 -100.26917751 163.37005211 -108.4375 168.25 C-116.05036052 172.800358 -123.59697136 177.45126064 -131.12866211 182.13452148 C-138.05548516 186.43435157 -145.03344642 190.64359319 -152.03198242 194.82543945 C-157.67796436 198.20041819 -163.28807378 201.62659524 -168.8828125 205.0859375 C-172.30325052 207.18620646 -175.74261634 209.25268659 -179.1875 211.3125 C-187.82864483 216.48127608 -196.41399788 221.74030289 -205 227 C-217.05571728 234.38520915 -229.14536859 241.70830361 -241.28125 248.9609375 C-249.06018118 253.61759126 -256.81469748 258.31355218 -264.5617981 263.02294922 C-292.3063406 279.88587809 -292.3063406 279.88587809 -306 288 C-306.80985352 288.48001465 -307.61970703 288.9600293 -308.45410156 289.45458984 C-324.75914581 299.05753919 -339.96085497 304.84235584 -359.140625 300.87890625 C-369.99266214 297.5432391 -379.27604159 291.40259517 -385.00390625 281.5546875 C-388.73740769 274.48472778 -391.09376479 268.5036547 -391.17700195 260.46630859 C-391.18983719 259.38102875 -391.20267242 258.2957489 -391.21589661 257.17758179 C-391.22328354 256.01296417 -391.23067047 254.84834656 -391.23828125 253.6484375 C-391.25038887 251.83371445 -391.25038887 251.83371445 -391.26274109 249.98233032 C-391.27656087 247.42199121 -391.28729242 244.86163383 -391.29516602 242.30126953 C-391.30667482 239.69444344 -391.3271089 237.0876407 -391.35668945 234.48095703 C-391.39954677 230.70328848 -391.41556196 226.92631958 -391.42578125 223.1484375 C-391.44328934 221.99596527 -391.46079742 220.84349304 -391.47883606 219.65609741 C-391.45052802 208.97183275 -388.76362488 200.66783307 -382.26953125 192.16796875 C-376.04670675 186.22361833 -368.1014947 182.26533296 -360.625 178.125 C-351.94410792 173.27011242 -343.35421466 168.2830596 -334.8125 163.1875 C-325.53134089 157.65569213 -316.20361027 152.21805881 -306.8125 146.875 C-295.13814039 140.2317512 -283.51836787 133.499986 -271.92675781 126.71337891 C-266.99491937 123.8261882 -262.0604267 120.9435518 -257.125 118.0625 C-256.14490967 117.49031738 -255.16481934 116.91813477 -254.1550293 116.32861328 C-246.63810739 111.94481453 -239.1026544 107.59368941 -231.5625 103.25 C-227.37415853 100.83478894 -223.18666948 98.41810818 -219 96 C-218.14164551 95.5045166 -217.28329102 95.0090332 -216.39892578 94.49853516 C-211.57362173 91.70763045 -206.76780233 88.88816302 -202 86 C-201.40993164 85.64357422 -200.81986328 85.28714844 -200.21191406 84.91992188 C-191.33777273 79.49655807 -185.87804667 74.84409946 -182.64428711 64.88696289 C-181.26068589 58.68723404 -181.41288704 52.26477248 -181.3125 45.9375 C-181.27926379 44.48499645 -181.24476849 43.03252114 -181.20898438 41.58007812 C-181.12480821 38.05359261 -181.05766349 34.52703038 -181 31 C-170.51958396 36.07811341 -160.34369557 41.53514215 -150.24780273 47.3425293 C-132.77894224 57.51332693 -132.77894224 57.51332693 -113 58 C-104.93923543 55.27244173 -97.45299139 51.05606695 -90 47 C-89.10104004 46.5143457 -88.20208008 46.02869141 -87.27587891 45.52832031 C-83.03413264 43.22837921 -78.81235397 40.89512555 -74.6015625 38.5390625 C-70.59794682 36.31043259 -66.54815787 34.21066797 -62.4375 32.1875 C-43.72795492 22.96742454 -25.29596692 13.2011737 -7.04516602 3.10644531 C-1.30317741 0 -1.30317741 0 0 0 Z " fill="#18273D" transform="translate(1045,756)"/>
<path d="M0 0 C0 34.65 0 69.3 0 105 C-25.1625 118.725 -25.1625 118.725 -33.6875 123.125 C-35.61864441 124.12730593 -37.54963173 125.12991456 -39.48046875 126.1328125 C-40.41036621 126.61524414 -41.34026367 127.09767578 -42.29833984 127.59472656 C-46.37364882 129.71450593 -50.43717688 131.85641404 -54.5 134 C-62.46020617 138.19706121 -70.43617436 142.36343817 -78.41796875 146.51928711 C-83.0989098 148.95806687 -87.77468995 151.40561178 -92.4375 153.87890625 C-93.29279297 154.33201172 -94.14808594 154.78511719 -95.02929688 155.25195312 C-96.62040322 156.09593127 -98.21034308 156.9421141 -99.79882812 157.79101562 C-106.79027982 161.49755482 -112.77991587 164.52395235 -120.875 164.4375 C-122.19242188 164.45683594 -123.50984375 164.47617187 -124.8671875 164.49609375 C-134.04846555 163.85269425 -142.68096471 157.59678329 -150.5625 153.3125 C-151.70259521 152.69544189 -152.84269043 152.07838379 -154.01733398 151.44262695 C-160.55409644 147.89658244 -167.07629821 144.32528411 -173.5625 140.6875 C-174.54295288 140.13799683 -174.54295288 140.13799683 -175.54321289 139.57739258 C-179.87106403 137.12893597 -179.87106403 137.12893597 -181 136 C-181.09527037 134.65927183 -181.1218877 133.31357497 -181.12025452 131.96946716 C-181.12162918 131.10143463 -181.12300385 130.2334021 -181.12442017 129.33906555 C-181.12082489 128.37953476 -181.11722961 127.42000397 -181.11352539 126.43139648 C-181.11367142 125.42663269 -181.11381744 124.4218689 -181.1139679 123.38665771 C-181.1132683 120.04811483 -181.10547374 116.70962695 -181.09765625 113.37109375 C-181.09579224 111.06323782 -181.09436826 108.75538149 -181.09336853 106.44752502 C-181.08954204 100.35982174 -181.07971065 94.27214214 -181.06866455 88.18444824 C-181.05845323 81.97778646 -181.05387151 75.77112087 -181.04882812 69.56445312 C-181.0380885 57.37629165 -181.02101052 45.18814779 -181 33 C-177.2389586 33.68625643 -174.50170591 34.63212942 -171.18359375 36.5546875 C-170.26352539 37.08223633 -169.34345703 37.60978516 -168.39550781 38.15332031 C-166.93129395 39.00555176 -166.93129395 39.00555176 -165.4375 39.875 C-163.37944864 41.05563349 -161.32084354 42.23530217 -159.26171875 43.4140625 C-158.22192871 44.0112207 -157.18213867 44.60837891 -156.11083984 45.22363281 C-151.34812905 47.94325954 -146.55376145 50.6037283 -141.75 53.25 C-140.91138428 53.71519043 -140.07276855 54.18038086 -139.20874023 54.65966797 C-138.43344971 55.08650879 -137.65815918 55.51334961 -136.859375 55.953125 C-136.18358398 56.32598633 -135.50779297 56.69884766 -134.81152344 57.08300781 C-131.04116012 58.99156369 -127.9184982 59.16326455 -123.75 59.1875 C-122.10257813 59.20876953 -122.10257813 59.20876953 -120.421875 59.23046875 C-112.44224373 58.69302783 -106.16541525 55.20485172 -99.25 51.5 C-98.23357422 50.96246094 -97.21714844 50.42492187 -96.16992188 49.87109375 C-94.09297544 48.77222153 -92.0174441 47.67067036 -89.94335938 46.56640625 C-86.55821092 44.7648873 -83.16566133 42.9778137 -79.77124023 41.19384766 C-78.24674686 40.3925177 -76.72282797 39.59009392 -75.19946289 38.78662109 C-70.96696321 36.55470623 -66.72782202 34.3363432 -62.48046875 32.1328125 C-51.93470955 26.65940234 -41.4490969 21.09643874 -31.03076172 15.3840332 C-24.81576545 11.97993844 -18.57874575 8.62135701 -12.3125 5.3125 C-11.51618164 4.8901709 -10.71986328 4.4678418 -9.89941406 4.03271484 C-8.79871582 3.45384521 -8.79871582 3.45384521 -7.67578125 2.86328125 C-6.7153894 2.35728394 -6.7153894 2.35728394 -5.7355957 1.84106445 C-1.93642961 0 -1.93642961 0 0 0 Z " fill="#6648F4" transform="translate(1045,651)"/>
<path d="M0 0 C0 24.09 0 48.18 0 73 C-21.375 84.25 -21.375 84.25 -31.5 89.5 C-46.32038104 97.20075291 -61.10917693 104.92350893 -75.71411133 113.02685547 C-81.55534282 116.25075158 -87.46750492 119.2826479 -93.46313477 122.20776367 C-98.6067811 124.73836644 -103.49716116 127.59921741 -108.3515625 130.65234375 C-111.3141568 132.15985855 -113.70647043 132.62650696 -117 133 C-117.94617188 133.12503906 -118.89234375 133.25007812 -119.8671875 133.37890625 C-130.21817399 134.01071971 -137.33994789 129.96497896 -146 125 C-147.90311333 123.92744001 -149.80679215 122.85588299 -151.7109375 121.78515625 C-154.67378922 120.11631102 -157.63283281 118.44247981 -160.57958984 116.74536133 C-167.29643354 112.88668623 -174.0415517 109.47922415 -181 106 C-181 81.58 -181 57.16 -181 32 C-177.10829038 32.9729274 -174.26620371 34.28769122 -170.72265625 36.1328125 C-170.11546249 36.44773651 -169.50826874 36.76266052 -168.88267517 37.08712769 C-166.9405416 38.09581887 -165.001561 39.11041719 -163.0625 40.125 C-161.79380973 40.78421983 -160.52493108 41.44307727 -159.25585938 42.1015625 C-154.25065962 44.70410189 -149.24797307 47.307799 -144.30029297 50.01855469 C-143.14803223 50.64922852 -141.99577148 51.27990234 -140.80859375 51.9296875 C-139.78435303 52.49671387 -138.7601123 53.06374023 -137.70483398 53.64794922 C-128.8310301 58.08364972 -119.56882854 56.19877039 -110.4987793 53.29077148 C-104.69097147 51.14815199 -99.31686342 48.30715646 -93.875 45.375 C-92.6842228 44.74375746 -91.49288854 44.11356473 -90.30102539 43.484375 C-87.939569 42.23581512 -85.58205825 40.98062259 -83.22607422 39.72167969 C-80.47123772 38.25148845 -77.71004334 36.79552801 -74.94140625 35.3515625 C-66.00168897 30.68786039 -57.12242181 25.91528992 -48.25 21.125 C-39.60345397 16.46166563 -30.94532602 11.82184157 -22.25 7.25 C-21.30415039 6.74871582 -20.35830078 6.24743164 -19.38378906 5.73095703 C-12.65188277 2.20804869 -7.76966349 0 0 0 Z " fill="#31B0FC" transform="translate(1045,578)"/>
<path d="M0 0 C1.5159375 -0.00773438 1.5159375 -0.00773438 3.0625 -0.015625 C9.30947441 0.54926098 13.03582494 3.65087837 17.625 7.6875 C18.23746582 8.21883545 18.84993164 8.7501709 19.48095703 9.29760742 C24.38515113 13.59945379 28.98808445 18.13426513 33.55078125 22.796875 C36.24606187 25.49645431 39.07225076 27.96805433 41.97265625 30.44140625 C45.3160617 33.4240589 48.4107637 36.65356692 51.55859375 39.83984375 C54.27202727 42.51854532 57.10777023 44.99608118 60.00390625 47.47265625 C63.06803813 50.20099285 65.90481832 53.14667908 68.78515625 56.06640625 C70.77659461 58.02974671 72.81302578 59.87079669 74.9375 61.6875 C79.02715494 65.19175702 82.76666958 68.99964508 86.546875 72.83203125 C88.71514384 74.96922617 90.93066621 76.96783676 93.25 78.9375 C98.85363264 83.75843901 104.37255392 88.77945445 105.25 96.4296875 C105.65659369 104.58697342 103.7589781 111.3100815 98.26904297 117.47290039 C94.87496809 121.0762374 91.31628228 124.50614035 87.75 127.9375 C86.53382132 129.13210602 85.31896679 130.32806167 84.10546875 131.52539062 C79.52323078 136.02676281 74.94426936 140.51536066 70.046875 144.67578125 C63.49169658 150.28693755 57.56474605 156.62133442 51.5 162.75 C36.94024219 177.46321072 36.94024219 177.46321072 30.73144531 182.71923828 C28.1542021 184.99776549 25.83254364 187.49905583 23.47143555 189.99780273 C12.14417514 201.89719238 12.14417514 201.89719238 4 203.25 C3.16984375 203.38792969 2.3396875 203.52585937 1.484375 203.66796875 C-4.46160815 204.15130787 -8.30846768 202.59322371 -13.01953125 199.0078125 C-17.77237859 194.78930895 -20.13498427 191.33105503 -21.0625 184.9375 C-21.36104828 177.39143479 -19.40249369 171.79845412 -14.3515625 166.1796875 C-11.68393695 163.38284054 -8.96802428 160.72806472 -6 158.25 C-5.34 158.25 -4.68 158.25 -4 158.25 C-3.67 157.26 -3.34 156.27 -3 155.25 C-1.50390625 153.77734375 -1.50390625 153.77734375 0.4375 152.1875 C5.58199682 147.82247239 10.26806191 143.05363413 15 138.25 C24.48522537 128.6210591 24.48522537 128.6210591 29.0078125 124.74609375 C34.83986935 119.74823508 40.10139199 114.15523872 45.4609375 108.66210938 C46.275625 107.83646484 47.0903125 107.01082031 47.9296875 106.16015625 C48.66429199 105.40871338 49.39889648 104.65727051 50.15576172 103.88305664 C52 102.25 52 102.25 54 102.25 C52.89157953 98.92473858 52.06131256 98.21063352 49.43359375 96.02734375 C45.17965662 92.41665261 41.11170745 88.65000934 37.0625 84.8125 C35.56383819 83.39709718 34.06513923 81.98173371 32.56640625 80.56640625 C31.80859863 79.84984863 31.05079102 79.13329102 30.27001953 78.39501953 C27.38516941 75.66902543 24.49500546 72.9487155 21.60400391 70.22924805 C20.19832843 68.90692139 18.79305658 67.58416554 17.38818359 66.26098633 C13.78898743 62.87123867 10.18544209 59.4863096 6.57421875 56.109375 C3.01943721 52.78389614 -0.51994783 49.44270792 -4.05029297 46.09130859 C-5.89823872 44.34610362 -7.7624241 42.61985521 -9.62890625 40.89453125 C-16.26767506 34.66196047 -20.38287373 29.89145411 -21.24609375 20.6015625 C-21.25636353 13.26893985 -18.37507027 9.4403002 -13.421875 4.24609375 C-9.11319598 0.6949083 -5.51529785 -0.02813927 0 0 Z " fill="#18273D" transform="translate(715,514.75)"/>
<path d="M0 0 C4.8455678 2.4227839 8.42808475 5.62666048 11.6875 9.9375 C13.51517695 15.8505725 14.57513993 22.7666196 11.68652344 28.47753906 C7.84917881 34.55752203 3.00576076 39.50628794 -2.125 44.5 C-2.88941406 45.25925781 -3.65382813 46.01851562 -4.44140625 46.80078125 C-8.66141568 50.96347306 -12.98936564 54.94469144 -17.47705078 58.81591797 C-19.84512599 60.89833717 -22.05068963 63.11624881 -24.25 65.375 C-27.81359983 68.98219127 -31.46924856 72.36977889 -35.3203125 75.6640625 C-38.08970162 78.11951277 -40.65035124 80.76596339 -43.24609375 83.40234375 C-45.8226053 85.93867578 -48.54426301 88.27727257 -51.28515625 90.6328125 C-54.41363209 93.40676921 -57.33580113 96.37883929 -60.25 99.375 C-58.95595933 102.2578329 -57.64581607 104.19079233 -55.30078125 106.30078125 C-54.70724854 106.84275146 -54.11371582 107.38472168 -53.50219727 107.94311523 C-52.86209717 108.51876221 -52.22199707 109.09440918 -51.5625 109.6875 C-45.3779044 115.34273933 -39.39034086 121.14880986 -33.52661133 127.13598633 C-30.6539736 130.04970201 -27.74800906 132.84215055 -24.6328125 135.49609375 C-18.45758143 140.82670873 -12.80591013 146.71412917 -7.0625 152.5 C-5.88890797 153.67862055 -4.7150814 154.85700762 -3.54101562 156.03515625 C-0.90697663 158.67908829 1.72522696 161.32482116 4.35372925 163.97425842 C5.74110626 165.36607779 7.13969751 166.746689 8.53833008 168.12719727 C12.57923092 172.2341157 13.09870159 175.33207285 13.25 181.0625 C13.1413842 188.02115247 11.71180223 192.44576977 6.75 197.375 C1.10089623 201.72420247 -4.24336804 202.83445128 -11.25 202.375 C-19.30276078 201.01291593 -24.84494463 196.32168931 -30.25 190.375 C-30.25 189.715 -30.25 189.055 -30.25 188.375 C-30.81805359 188.13259079 -31.38610718 187.89018158 -31.97137451 187.64042664 C-34.69023711 186.13051587 -36.51873372 184.33875035 -38.70800781 182.12817383 C-39.58281799 181.24998489 -40.45762817 180.37179596 -41.35894775 179.46699524 C-42.30703228 178.50536566 -43.25509069 177.54371034 -44.203125 176.58203125 C-45.18664029 175.59223715 -46.17067811 174.60296203 -47.1552124 173.61418152 C-49.74729697 171.00880428 -52.33376597 168.39792934 -54.91864014 165.78540039 C-59.03971214 161.62122327 -63.16736256 157.46359785 -67.29854584 153.30945396 C-68.72992998 151.86797793 -70.15777159 150.423064 -71.58526611 148.97773743 C-76.09456333 144.43525427 -80.65157191 140.03818345 -85.5112915 135.87202454 C-89.85546191 132.13170251 -93.90683559 128.07218919 -98 124.0625 C-98.93199219 123.17626953 -99.86398437 122.29003906 -100.82421875 121.37695312 C-107.4002754 114.90939669 -111.54800451 109.09124895 -112.6875 99.8125 C-111.20418463 88.15787922 -105.31019898 81.8121569 -96.57421875 74.44921875 C-92.9731529 71.23549443 -89.63169182 67.763574 -86.28637695 64.28613281 C-84.97698074 62.94620608 -83.61716583 61.65592922 -82.25 60.375 C-81.59 60.375 -80.93 60.375 -80.25 60.375 C-80.25 59.715 -80.25 59.055 -80.25 58.375 C-78.81640625 56.96484375 -78.81640625 56.96484375 -76.8125 55.3125 C-73.64242783 52.62325006 -70.66418475 49.83986623 -67.75 46.875 C-64.36758601 43.4461721 -60.86929558 40.25451482 -57.21484375 37.12109375 C-55.14179676 35.27884325 -53.19564198 33.35098338 -51.25 31.375 C-48.73044611 28.81630741 -46.16881218 26.39329389 -43.4375 24.0625 C-40.09553846 21.19702907 -37.01722514 18.14534429 -33.9375 15 C-23.59510377 4.55663198 -15.53057456 -2.98664895 0 0 Z " fill="#3862F3" transform="translate(490.25,515.625)"/>
<path d="M0 0 C4.53944687 3.24246205 8.36902579 7.34871348 9.625 12.875 C9.4946607 21.26401589 7.15833836 29.26703919 5 37.3125 C4.6395149 38.67964363 4.27982714 40.04699772 3.92089844 41.41455078 C3.18694437 44.20720432 2.4492158 46.99881387 1.70800781 49.78955078 C0.07610883 55.93758044 -1.5259997 62.0933438 -3.125 68.25 C-3.56211304 69.92968872 -3.56211304 69.92968872 -4.00805664 71.64331055 C-5.72594319 78.27382799 -7.35440546 84.91678279 -8.88989258 91.59155273 C-12.0328387 105.14228766 -15.70215394 118.57123057 -19.48022461 131.95678711 C-21.23407419 138.233098 -22.81191668 144.54882415 -24.375 150.875 C-26.08122536 157.77579349 -27.8197776 164.65824556 -29.75 171.5 C-32.80251614 182.31987062 -35.67297698 193.18756805 -38.55963135 204.05262756 C-39.87541144 209.00286256 -41.19680399 213.95157738 -42.52088928 218.89959717 C-43.28570033 221.75779207 -44.04975334 224.61618886 -44.8137207 227.47460938 C-45.85277349 231.36198979 -46.89472392 235.24857916 -47.93823242 239.13476562 C-50.27603721 247.86046666 -52.57841489 256.58882631 -54.7109375 265.3671875 C-55.06363145 266.80155564 -55.41649039 268.23588322 -55.76953125 269.67016602 C-56.4052572 272.25542838 -57.0158951 274.84244424 -57.61328125 277.43725586 C-59.60512126 285.56123236 -62.22785332 291.71526919 -69 296.875 C-74.83738502 298.60459556 -81.51141278 299.30265548 -87.078125 296.52734375 C-91.95253881 293.02075014 -95.21534443 288.78924341 -96.375 282.875 C-96.12529846 276.90199229 -94.85260427 271.23403036 -93.25 265.5 C-92.79738858 263.83094279 -92.34561599 262.16165796 -91.89453125 260.4921875 C-91.65041504 259.59467773 -91.40629883 258.69716797 -91.15478516 257.77246094 C-89.70902516 252.40042598 -88.32806544 247.01153095 -86.9375 241.625 C-86.33739771 239.30985484 -85.73713738 236.99475064 -85.13671875 234.6796875 C-84.01001996 230.33182525 -82.88788853 225.9828271 -81.76953125 221.6328125 C-81.26307409 219.67186125 -80.75656624 217.71092308 -80.25 215.75 C-80.03287354 214.90018555 -79.81574707 214.05037109 -79.59204102 213.17480469 C-78.16875074 207.6789002 -76.60227067 202.23654615 -74.98046875 196.796875 C-72.3657343 188.00308926 -70.06224659 179.14302358 -67.8125 170.25 C-67.06247682 167.29915287 -66.31076369 164.34873807 -65.55859375 161.3984375 C-65.37417725 160.67423615 -65.18976074 159.95003479 -64.99975586 159.20388794 C-63.52360017 153.42116383 -61.99045214 147.65462533 -60.44458008 141.89013672 C-59.20477176 137.25261893 -57.99716719 132.60679667 -56.7890625 127.9609375 C-47.5737125 92.5546905 -47.5737125 92.5546905 -44.30126953 81.70263672 C-42.67454075 76.23375429 -41.37180274 70.6993814 -40.07983398 65.14416504 C-37.88437236 55.72406792 -35.57465391 46.33313326 -33.22094727 36.95141602 C-32.69496641 34.84405054 -32.17453131 32.73529376 -31.65942383 30.62524414 C-30.90224345 27.52660335 -30.12686531 24.43300859 -29.34765625 21.33984375 C-29.01146019 19.93967262 -29.01146019 19.93967262 -28.66847229 18.51121521 C-26.86513463 11.47538569 -24.35214873 4.74297075 -18.25 0.375 C-12.51861534 -2.4467977 -5.91264619 -1.97088206 0 0 Z " fill="#18273D" transform="translate(646.375,466.125)"/>
<path d="M0 0 C0 10.23 0 20.46 0 31 C-3.3 31.99 -6.6 32.98 -10 34 C-12.10379338 34.93179733 -14.18138439 35.92722809 -16.21484375 37.00390625 C-17.30297363 37.57439697 -18.39110352 38.1448877 -19.51220703 38.73266602 C-21.20772705 39.63843384 -21.20772705 39.63843384 -22.9375 40.5625 C-24.14133467 41.19734861 -25.34560514 41.83137145 -26.55029297 42.46459961 C-28.94318816 43.72416726 -31.33347876 44.98844806 -33.72119141 46.2578125 C-37.27609435 48.1467021 -40.83807564 50.0217346 -44.40185547 51.89379883 C-45.88991015 52.67606522 -47.37721021 53.45976871 -48.86376953 54.24487305 C-53.21587066 56.54297997 -57.57780183 58.8208576 -61.94921875 61.08203125 C-73.20365036 66.90518075 -84.41533799 72.77932319 -95.48168945 78.95458984 C-107.50721932 85.60880213 -118.01672227 91.08543466 -132 88 C-138.45903046 85.66359458 -144.32673609 82.13025989 -150.21337891 78.63476562 C-154.09664229 76.35665702 -158.05242593 74.22163635 -162.01269531 72.08105469 C-165.56297892 70.16188635 -169.09808853 68.21566327 -172.63256836 66.26757812 C-175.39278018 64.78969633 -178.19958518 63.40020741 -181 62 C-181 52.43 -181 42.86 -181 33 C-176.77204724 33.84559055 -174.744544 34.49142583 -171.18359375 36.5546875 C-170.26352539 37.08223633 -169.34345703 37.60978516 -168.39550781 38.15332031 C-166.93129395 39.00555176 -166.93129395 39.00555176 -165.4375 39.875 C-163.37944864 41.05563349 -161.32084354 42.23530217 -159.26171875 43.4140625 C-158.22192871 44.0112207 -157.18213867 44.60837891 -156.11083984 45.22363281 C-151.34812905 47.94325954 -146.55376145 50.6037283 -141.75 53.25 C-140.91138428 53.71519043 -140.07276855 54.18038086 -139.20874023 54.65966797 C-138.43344971 55.08650879 -137.65815918 55.51334961 -136.859375 55.953125 C-136.18358398 56.32598633 -135.50779297 56.69884766 -134.81152344 57.08300781 C-131.04116012 58.99156369 -127.9184982 59.16326455 -123.75 59.1875 C-122.10257813 59.20876953 -122.10257813 59.20876953 -120.421875 59.23046875 C-112.44224373 58.69302783 -106.16541525 55.20485172 -99.25 51.5 C-98.23357422 50.96246094 -97.21714844 50.42492187 -96.16992188 49.87109375 C-94.09297544 48.77222153 -92.0174441 47.67067036 -89.94335938 46.56640625 C-86.55821092 44.7648873 -83.16566133 42.9778137 -79.77124023 41.19384766 C-78.24674686 40.3925177 -76.72282797 39.59009392 -75.19946289 38.78662109 C-70.96696321 36.55470623 -66.72782202 34.3363432 -62.48046875 32.1328125 C-51.93470955 26.65940234 -41.4490969 21.09643874 -31.03076172 15.3840332 C-24.81576545 11.97993844 -18.57874575 8.62135701 -12.3125 5.3125 C-11.51618164 4.8901709 -10.71986328 4.4678418 -9.89941406 4.03271484 C-8.79871582 3.45384521 -8.79871582 3.45384521 -7.67578125 2.86328125 C-6.7153894 2.35728394 -6.7153894 2.35728394 -5.7355957 1.84106445 C-1.93642961 0 -1.93642961 0 0 0 Z " fill="#172740" transform="translate(1045,651)"/>
<path d="M0 0 C0.99 0 1.98 0 3 0 C3 10.56 3 21.12 3 32 C-0.63 32.66 -4.26 33.32 -8 34 C-11.53228321 35.66695112 -14.77702868 37.34642525 -18.125 39.3125 C-20.04937771 40.40222187 -21.97521836 41.48936343 -23.90234375 42.57421875 C-25.39483643 43.41992432 -25.39483643 43.41992432 -26.91748047 44.28271484 C-32.11453491 47.17801668 -37.40033321 49.89880462 -42.6875 52.625 C-44.80350563 53.71981976 -46.919393 54.81486814 -49.03515625 55.91015625 C-50.04723145 56.43367676 -51.05930664 56.95719727 -52.10205078 57.49658203 C-56.28594492 59.66713132 -60.45652523 61.86252111 -64.625 64.0625 C-74.57302978 69.3074729 -84.5335745 74.52803661 -94.515625 79.70800781 C-96.62844903 80.80677597 -98.73674423 81.91357911 -100.84375 83.0234375 C-109.85508144 87.68839443 -119.88449114 91.55232091 -130.09130859 88.34228516 C-137.69477833 85.4675189 -144.75977466 81.51820043 -151.875 77.625 C-153.68061555 76.64189383 -155.48711341 75.66046203 -157.29470825 74.68099976 C-158.94018862 73.78865528 -160.58322542 72.891809 -162.22607422 71.99462891 C-167.4376688 69.24015047 -172.7275911 66.63620445 -178 64 C-178 54.43 -178 44.86 -178 35 C-173.89692232 36.36769256 -170.82925347 37.48179649 -167.1640625 39.50390625 C-166.27211182 39.9932666 -165.38016113 40.48262695 -164.46118164 40.98681641 C-163.05727173 41.76677979 -163.05727173 41.76677979 -161.625 42.5625 C-160.6548999 43.09536621 -159.6847998 43.62823242 -158.68530273 44.17724609 C-154.18416227 46.655748 -149.7001445 49.16045665 -145.24609375 51.72265625 C-144.53308105 52.1312085 -143.82006836 52.53976074 -143.08544922 52.96069336 C-141.7821263 53.71081971 -140.48262833 54.46765144 -139.18798828 55.23266602 C-131.64555863 59.58183686 -124.56055812 60.83271508 -116 60 C-108.62251784 57.95389608 -101.99287478 54.58679688 -95.375 50.8125 C-85.85255966 45.49764958 -76.20834685 40.46296199 -66.5 35.5 C-56.28503901 30.27175689 -46.13334886 24.96244039 -36.08911133 19.41088867 C-27.33601668 14.59013827 -18.4570868 10.01551845 -9.56689453 5.4543457 C-7.91536377 4.6048938 -7.91536377 4.6048938 -6.23046875 3.73828125 C-5.24457764 3.23337158 -4.25868652 2.72846191 -3.24291992 2.20825195 C-1.09273569 1.18846029 -1.09273569 1.18846029 0 0 Z " fill="#17283F" transform="translate(1042,546)"/>
<path d="M0 0 C0.66 0.33 1.32 0.66 2 1 C1.09378906 1.58007812 0.18757813 2.16015625 -0.74609375 2.7578125 C-1.97666945 3.54670819 -3.20713028 4.3357831 -4.4375 5.125 C-5.39885864 5.74133301 -5.39885864 5.74133301 -6.37963867 6.37011719 C-9.88596064 8.6232676 -13.36531014 10.9068923 -16.8125 13.25 C-19.54229372 15.08486134 -22.29406488 16.74919714 -25.1875 18.3125 C-29.25486304 20.51357737 -33.12729346 22.97723184 -37 25.5 C-41.47172403 28.41011323 -45.97294922 31.16443084 -50.66796875 33.69921875 C-58.77551876 38.22152051 -66.55682856 43.34375664 -74.375 48.34375 C-77.77780934 50.49076066 -81.2279156 52.55285343 -84.68359375 54.61328125 C-89.33692267 57.39900092 -93.91593559 60.29553192 -98.46875 63.2421875 C-99.40122559 63.8448645 -99.40122559 63.8448645 -100.35253906 64.4597168 C-101.59535226 65.26389945 -102.83693837 66.06998242 -104.07714844 66.87817383 C-106.98592345 68.7612528 -109.86827286 70.51725021 -113 72 C-117.65153324 74.45472882 -122.14817458 77.04289271 -126.5 80 C-129.29499497 81.89848715 -132.08852566 83.64732692 -135.0625 85.25 C-139.25412286 87.52648483 -143.28011349 90.01906318 -147.3125 92.5625 C-153.74729606 96.61677102 -160.22987676 100.58437124 -166.75 104.5 C-167.60762939 105.0163501 -168.46525879 105.5327002 -169.34887695 106.06469727 C-170.15671631 106.54865967 -170.96455566 107.03262207 -171.796875 107.53125 C-172.51198242 107.95986328 -173.22708984 108.38847656 -173.96386719 108.83007812 C-175.94298162 109.96723836 -177.95608152 110.98544626 -180 112 C-181.75876126 113.06905096 -183.50734574 114.1548894 -185.25 115.25 C-190.69770587 118.64619381 -196.22581756 121.89186806 -201.78100586 125.10888672 C-206.86489204 128.05407254 -211.93570588 131.02126774 -217 134 C-217.74056641 134.43489746 -218.48113281 134.86979492 -219.24414062 135.31787109 C-233.92166837 144.02853748 -249.39871523 156.72712891 -257.02734375 172.28515625 C-258 174 -258 174 -260 175 C-258.63867267 170.11697806 -256.46030041 166.3091784 -253.5 162.25 C-253.05422607 161.63729248 -252.60845215 161.02458496 -252.14916992 160.39331055 C-240.98541094 145.37930212 -226.28041314 135.61916563 -210.15820312 126.60620117 C-204.06569544 123.20006381 -198.0995872 119.64729551 -192.1875 115.9375 C-183.34957608 110.40502893 -174.41192254 105.05664163 -165.4375 99.75 C-155.1099489 93.6412616 -144.81045645 87.49143535 -134.5625 81.25 C-133.98789032 80.90005981 -133.41328064 80.55011963 -132.82125854 80.1895752 C-132.24916656 79.84116577 -131.67707458 79.49275635 -131.08764648 79.13378906 C-123.57592807 74.55967185 -116.046167 70.01706338 -108.5 65.5 C-99.75087627 60.26176393 -91.02459067 54.98703177 -82.3125 49.6875 C-71.94033566 43.37827132 -61.54128531 37.11542413 -51.12600708 30.87765503 C-40.49597678 24.51018482 -29.89420306 18.09727762 -19.30859375 11.65625 C-17.19345922 10.36943761 -15.07700096 9.08479754 -12.95898438 7.80273438 C-10.9831365 6.59896699 -9.01562182 5.38141597 -7.05664062 4.15039062 C-6.15623047 3.59029297 -5.25582031 3.03019531 -4.328125 2.453125 C-3.53825195 1.95458008 -2.74837891 1.45603516 -1.93457031 0.94238281 C-1.29616211 0.63139648 -0.65775391 0.32041016 0 0 Z " fill="#2C9BFB" transform="translate(481,225)"/>
<path d="M0 0 C0.66 0 1.32 0 2 0 C0.51199325 3.92511186 -1.53034369 5.23340046 -5.1171875 7.29296875 C-6.18437012 7.91421631 -7.25155273 8.53546387 -8.35107422 9.17553711 C-9.21004303 9.66592972 -9.21004303 9.66592972 -10.08636475 10.16622925 C-12.53654248 11.56522597 -14.97326239 12.98694074 -17.41091919 14.40760803 C-18.68847751 15.15201831 -19.96670717 15.8952775 -21.24557495 16.63743591 C-27.26716279 20.13674602 -33.21564667 23.75037502 -39.15579224 27.38568115 C-50.67978202 34.43610863 -62.29087923 41.32708399 -73.97021484 48.11694336 C-80.60659716 51.98205246 -87.17698971 55.93499079 -93.70776367 59.97583008 C-98.835828 63.1287245 -104.00770157 66.20647047 -109.18676758 69.2746582 C-110.9624695 70.32730203 -112.73613082 71.38333091 -114.50976562 72.43945312 C-115.66133694 73.12260051 -116.81302527 73.80555068 -117.96484375 74.48828125 C-118.9818335 75.09196533 -119.99882324 75.69564941 -121.04663086 76.31762695 C-123.98335728 77.99051955 -126.96338616 79.51744954 -130 81 C-128.64085284 76.92255851 -126.783929 76.42615276 -123.0859375 74.3046875 C-122.48381943 73.95570908 -121.88170135 73.60673065 -121.26133728 73.24717712 C-119.30384782 72.11487962 -117.33951544 70.99505491 -115.375 69.875 C-114.03482946 69.10214478 -112.69522931 68.32829963 -111.35620117 67.5534668 C-108.73817619 66.03908195 -106.11816977 64.52822735 -103.49658203 63.02001953 C-99.40754201 60.66322689 -95.35140685 58.25413018 -91.3125 55.8125 C-90.21164062 55.14992188 -89.11078125 54.48734375 -87.9765625 53.8046875 C-85.96770897 52.58672118 -83.9625712 51.36260801 -81.9609375 50.1328125 C-81.04570312 49.57335937 -80.13046875 49.01390625 -79.1875 48.4375 C-78.41792969 47.96183594 -77.64835938 47.48617187 -76.85546875 46.99609375 C-75 46 -75 46 -73 46 C-73 45.34 -73 44.68 -73 44 C-71.43880578 43.20576139 -69.87598036 42.41472877 -68.3125 41.625 C-67.44238281 41.18414062 -66.57226562 40.74328125 -65.67578125 40.2890625 C-63.15227201 39.07335732 -60.61262468 38.00739042 -58 37 C-58 36.34 -58 35.68 -58 35 C-56.37750059 34.16180842 -54.75191503 33.3295884 -53.125 32.5 C-52.22007812 32.0359375 -51.31515625 31.571875 -50.3828125 31.09375 C-48 30 -48 30 -46 30 C-46 29.34 -46 28.68 -46 28 C-44.3970947 27.18501438 -42.79262722 26.37310073 -41.1875 25.5625 C-40.29417969 25.11003906 -39.40085937 24.65757812 -38.48046875 24.19140625 C-36 23 -36 23 -33 22 C-32.67 21.34 -32.34 20.68 -32 20 C-30.02111039 19.27306096 -28.02045442 18.60183749 -26 18 C-26 17.34 -26 16.68 -26 16 C-25.13375 15.5875 -24.2675 15.175 -23.375 14.75 C-19.9690526 13.07524083 -19.9690526 13.07524083 -16.9375 10.875 C-14.13100133 9.08361787 -12.26525557 8.38414771 -9 8 C-9 7.34 -9 6.68 -9 6 C-8.071875 5.566875 -7.14375 5.13375 -6.1875 4.6875 C-3.48254066 3.2554627 -2.0458389 2.14813084 0 0 Z " fill="#2995FB" transform="translate(590,291)"/>
<path d="M0 0 C0.99 0.33 1.98 0.66 3 1 C-2.72673429 4.966114 -8.5967459 8.53108103 -14.66601562 11.94677734 C-25.05495473 17.81070513 -34.3824085 23.72448083 -43 32 C-43.77214844 32.71800781 -44.54429687 33.43601562 -45.33984375 34.17578125 C-52.08921282 40.64863985 -57.1996874 48.01363922 -62 56 C-62.33 55.34 -62.66 54.68 -63 54 C-52.07937516 30.2396447 -29.07327618 16.24487373 -7.12792969 4.19921875 C-5.40446438 3.22794046 -3.72850937 2.17268343 -2.0703125 1.09375 C-1.38710938 0.7328125 -0.70390625 0.371875 0 0 Z " fill="#2789F9" transform="translate(284,344)"/>
<path d="M0 0 C0.66 0 1.32 0 2 0 C2.1273463 7.79197634 2.21458062 15.58368179 2.2746582 23.37646484 C2.29971759 26.02435332 2.33377435 28.67217322 2.37719727 31.31982422 C2.43822279 35.13786804 2.46629732 38.95499294 2.48828125 42.7734375 C2.51408768 43.94675629 2.5398941 45.12007507 2.56648254 46.32894897 C2.56902992 53.88638305 1.39134063 59.71572841 -3 66 C-3.99 66.495 -3.99 66.495 -5 67 C-3 61 -3 61 -1.95556641 58.57763672 C-0.52148222 53.20843137 -0.64049082 47.91828592 -0.5859375 42.3828125 C-0.56657135 41.17051971 -0.5472052 39.95822693 -0.5272522 38.709198 C-0.46760685 34.84786961 -0.42113055 30.98651117 -0.375 27.125 C-0.33680644 24.50259137 -0.29775391 21.88019509 -0.2578125 19.2578125 C-0.16191753 12.83865161 -0.07682595 6.41941591 0 0 Z " fill="#1A98FC" transform="translate(598,223)"/>
<path d="M0 0 C4.98917432 0.55219988 8.61943937 2.87351364 12.8125 5.4375 C13.50537109 5.84548828 14.19824219 6.25347656 14.91210938 6.67382812 C16.64655453 7.72133047 18.32877914 8.85432029 20 10 C20 10.66 20 11.32 20 12 C21.093125 12.28875 22.18625 12.5775 23.3125 12.875 C27 14 27 14 30 16 C30 16.66 30 17.32 30 18 C30.680625 18.0825 31.36125 18.165 32.0625 18.25 C35.8746907 19.22332528 38.64070329 20.95807455 42 23 C41.67 23.66 41.34 24.32 41 25 C34.97205114 23.43352645 30.1903075 20.18624341 25 16.875 C16.77646026 11.70003315 8.49096021 6.72354257 0 2 C0 1.34 0 0.68 0 0 Z " fill="#515AF0" transform="translate(286,902)"/>
<path d="M0 0 C3.94120709 0.56302958 6.7508723 1.6791945 10 4 C10 4.66 10 5.32 10 6 C10.7425 6.0825 11.485 6.165 12.25 6.25 C15.56380021 7.15376369 16.60287888 8.60287888 19 11 C22.13350717 12.26784124 22.13350717 12.26784124 25 13 C25 13.66 25 14.32 25 15 C25.721875 15.103125 26.44375 15.20625 27.1875 15.3125 C30.27793421 16.06793947 32.41743841 17.15531315 35 19 C35 19.66 35 20.32 35 21 C35.99 21 36.98 21 38 21 C38.66 22.32 39.32 23.64 40 25 C36.19890962 23.59266841 32.85952617 21.83232228 29.39453125 19.734375 C28.32783203 19.09113281 27.26113281 18.44789063 26.16210938 17.78515625 C24.50405273 16.77775391 24.50405273 16.77775391 22.8125 15.75 C21.72646484 15.09386719 20.64042969 14.43773437 19.52148438 13.76171875 C17.37512434 12.46487899 15.23071014 11.16481255 13.08837891 9.86132812 C11.05982426 8.6387431 9.02059457 7.43366532 6.97021484 6.24804688 C6.05578613 5.71759766 5.14135742 5.18714844 4.19921875 4.640625 C3.38670654 4.17688477 2.57419434 3.71314453 1.73706055 3.23535156 C1.16383057 2.82768555 0.59060059 2.42001953 0 2 C0 1.34 0 0.68 0 0 Z " fill="#555BF0" transform="translate(328,927)"/>
<path d="M0 0 C0.66 0.33 1.32 0.66 2 1 C2 1.66 2 2.32 2 3 C3.65 3.33 5.3 3.66 7 4 C7 4.66 7 5.32 7 6 C8.32 6 9.64 6 11 6 C11.66 6.66 12.32 7.32 13 8 C14.98387708 9.03161608 16.98276656 10.03523618 19 11 C19 11.66 19 12.32 19 13 C19.78375 13.144375 20.5675 13.28875 21.375 13.4375 C24 14 24 14 26 15 C26 15.66 26 16.32 26 17 C26.99 17 27.98 17 29 17 C29 17.66 29 18.32 29 19 C29.99 19 30.98 19 32 19 C32 19.66 32 20.32 32 21 C26.07923896 19.41529713 21.24258707 16.35374687 16.0625 13.1875 C14.76022461 12.40536133 14.76022461 12.40536133 13.43164062 11.60742188 C8.46080298 8.59786711 3.67983305 5.44461181 -1 2 C-0.67 1.34 -0.34 0.68 0 0 Z " fill="#4B58EF" transform="translate(252,880)"/>
<path d="M0 0 C-0.33 0.66 -0.66 1.32 -1 2 C-3.08203125 2.45703125 -3.08203125 2.45703125 -5.8125 2.8125 C-12.6899472 3.93773678 -20.94923347 5.94923347 -26 11 C-26.99 10.67 -27.98 10.34 -29 10 C-20.53153866 4.14622488 -10.5206608 -0.51320297 0 0 Z " fill="#33ABFB" transform="translate(552,190)"/>
<path d="M0 0 C3.11968359 0.64428248 5.55873453 1.72242877 8.328125 3.28515625 C9.12734375 3.73310547 9.9265625 4.18105469 10.75 4.64257812 C11.575 5.11115234 12.4 5.57972656 13.25 6.0625 C14.09046875 6.53494141 14.9309375 7.00738281 15.796875 7.49414062 C17.86698876 8.65857961 19.93455014 9.8273145 22 11 C21.01 12.485 21.01 12.485 20 14 C18.66144944 13.21718695 17.32926356 12.42348123 16 11.625 C15.2575 11.18414063 14.515 10.74328125 13.75 10.2890625 C13.1725 9.86367188 12.595 9.43828125 12 9 C12 8.34 12 7.68 12 7 C11.2575 6.87625 10.515 6.7525 9.75 6.625 C7.19858515 6.04513299 5.2732427 5.26291261 3 4 C3 3.34 3 2.68 3 2 C2.01 1.67 1.02 1.34 0 1 C0 0.67 0 0.34 0 0 Z " fill="#4D59F4" transform="translate(531,913)"/>
<path d="M0 0 C0.33 0 0.66 0 1 0 C2.60671734 6.57293456 1.03358813 11.64647324 -1 18 C-1.66 18 -2.32 18 -3 18 C-2.51679152 11.7945858 -1.66681876 6.00054754 0 0 Z " fill="#25344A" transform="translate(591,588)"/>
<path d="M0 0 C1.98 0.66 3.96 1.32 6 2 C4.68 2.33 3.36 2.66 2 3 C2 11.58 2 20.16 2 29 C1.34 29 0.68 29 0 29 C0 19.43 0 9.86 0 0 Z " fill="#1D354E" transform="translate(864,581)"/>
<path d="M0 0 C1.89551022 -0.05441656 3.7914792 -0.09298035 5.6875 -0.125 C6.74324219 -0.14820313 7.79898438 -0.17140625 8.88671875 -0.1953125 C12.02251859 0.00141271 14.17645373 0.66942346 17 2 C16.34 2.66 15.68 3.32 15 4 C15 3.34 15 2.68 15 2 C14.01 2.495 14.01 2.495 13 3 C10.78861145 2.91188555 8.57957815 2.7570216 6.375 2.5625 C5.18648437 2.46066406 3.99796875 2.35882812 2.7734375 2.25390625 C1.85820313 2.17011719 0.94296875 2.08632813 0 2 C0 1.34 0 0.68 0 0 Z " fill="#2C3A50" transform="translate(709,515)"/>
<path d="M0 0 C0.33 0.66 0.66 1.32 1 2 C-2.72346836 6.42094803 -6.29521038 10.57833482 -11 14 C-11 11 -11 11 -8.59375 8.30078125 C-7.5700032 7.29697757 -6.5383946 6.30114351 -5.5 5.3125 C-4.97535156 4.80138672 -4.45070313 4.29027344 -3.91015625 3.76367188 C-2.61339096 2.50227292 -1.30753883 1.25022788 0 0 Z " fill="#3C77F6" transform="translate(461,526)"/>
<path d="M0 0 C0 3.74016583 -0.9341591 4.45276193 -3.375 7.1875 C-4.00148438 7.90292969 -4.62796875 8.61835937 -5.2734375 9.35546875 C-7 11 -7 11 -9 11 C-9.33 11.66 -9.66 12.32 -10 13 C-10 10 -10 10 -7.8125 7.51953125 C-6.884375 6.62621094 -5.95625 5.73289062 -5 4.8125 C-4.071875 3.91144531 -3.14375 3.01039063 -2.1875 2.08203125 C-1.1046875 1.05142578 -1.1046875 1.05142578 0 0 Z " fill="#2B374B" transform="translate(740,643)"/>
<path d="M0 0 C0.65795898 1.81152344 0.65795898 1.81152344 1 4 C-0.91934784 6.29016466 -2.76347858 8.23281698 -4.9375 10.25 C-5.51435547 10.80429687 -6.09121094 11.35859375 -6.68554688 11.9296875 C-8.11277729 13.29794145 -9.55502058 14.6505038 -11 16 C-11.66 15.67 -12.32 15.34 -13 15 C-11.96939453 14.00419922 -11.96939453 14.00419922 -10.91796875 12.98828125 C-10.01691406 12.10527344 -9.11585938 11.22226562 -8.1875 10.3125 C-7.29417969 9.44238281 -6.40085937 8.57226562 -5.48046875 7.67578125 C-3.20985423 5.22637818 -1.58588655 2.92414297 0 0 Z " fill="#DCE9FD" transform="translate(501,544)"/>
<path d="M0 0 C3.63 0 7.26 0 11 0 C11 0.99 11 1.98 11 3 C9.54257537 3.08096803 8.08387193 3.13917774 6.625 3.1875 C5.81289063 3.22230469 5.00078125 3.25710938 4.1640625 3.29296875 C3.44992187 3.19628906 2.73578125 3.09960938 2 3 C1.34 2.01 0.68 1.02 0 0 Z " fill="#407CF7" transform="translate(476,515)"/>
<path d="M0 0 C1.45792884 -0.05399736 2.91642712 -0.09279177 4.375 -0.125 C5.18710937 -0.14820313 5.99921875 -0.17140625 6.8359375 -0.1953125 C9 0 9 0 11 2 C8.01405576 3.49297212 5.29146376 3.11755228 2 3 C1.34 2.67 0.68 2.34 0 2 C0 1.34 0 0.68 0 0 Z " fill="#475BEF" transform="translate(477,715)"/>
<path d="M0 0 C0.33 0.99 0.66 1.98 1 3 C-2.3 5.97 -5.6 8.94 -9 12 C-9.33 11.01 -9.66 10.02 -10 9 C-9.44570313 8.51789062 -8.89140625 8.03578125 -8.3203125 7.5390625 C-7.59585937 6.90742187 -6.87140625 6.27578125 -6.125 5.625 C-5.40570313 4.99851562 -4.68640625 4.37203125 -3.9453125 3.7265625 C-2.5923402 2.52573166 -1.2791655 1.2791655 0 0 Z " fill="#316BF6" transform="translate(437,549)"/>
<path d="M0 0 C0.66 0.66 1.32 1.32 2 2 C0.37660195 3.70884005 -1.29319053 5.37446717 -3 7 C-3.66 7 -4.32 7 -5 7 C-5 7.66 -5 8.32 -5 9 C-5.66 9 -6.32 9 -7 9 C-5.44499019 5.18315774 -2.96404505 2.80804268 0 0 Z " fill="#2E3B50" transform="translate(705,677)"/>
<path d="M0 0 C0.66 0.33 1.32 0.66 2 1 C-3.86516854 5.88764045 -3.86516854 5.88764045 -7 7 C-8.34353414 6.71050922 -9.67965718 6.38155437 -11 6 C-9.21385682 4.96953278 -7.42089982 3.95086764 -5.625 2.9375 C-4.62726562 2.36902344 -3.62953125 1.80054688 -2.6015625 1.21484375 C-1.74304688 0.81394531 -0.88453125 0.41304687 0 0 Z " fill="#193A53" transform="translate(1020,663)"/>
<path d="M0 0 C0.66 0.33 1.32 0.66 2 1 C-2.625 5.875 -2.625 5.875 -6 7 C-6.66 6.34 -7.32 5.68 -8 5 C-6.71475739 4.13619741 -5.42157581 3.28419631 -4.125 2.4375 C-3.04605469 1.72400391 -3.04605469 1.72400391 -1.9453125 0.99609375 C-1.30335938 0.66738281 -0.66140625 0.33867187 0 0 Z " fill="#369AFA" transform="translate(328,317)"/>
<path d="M0 0 C4.75481646 0.57634139 7.97048212 2.55068521 12 5 C11.67 5.66 11.34 6.32 11 7 C10.484375 6.731875 9.96875 6.46375 9.4375 6.1875 C6.33598585 4.67650593 3.17737194 3.34427274 0 2 C0 1.34 0 0.68 0 0 Z " fill="#4B55F4" transform="translate(553,926)"/>
<path d="M0 0 C0.33 0.66 0.66 1.32 1 2 C1.66 2.33 2.32 2.66 3 3 C2.34 5.31 1.68 7.62 1 10 C0.01 10 -0.98 10 -2 10 C-1.34 6.7 -0.68 3.4 0 0 Z " fill="#28374D" transform="translate(582,622)"/>
<path d="M0 0 C1.65 0 3.3 0 5 0 C5 0.66 5 1.32 5 2 C6.175625 2.185625 6.175625 2.185625 7.375 2.375 C10 3 10 3 12 5 C10.55989519 4.74337755 9.1229313 4.46909179 7.6875 4.1875 C6.88699219 4.03667969 6.08648438 3.88585938 5.26171875 3.73046875 C2.76554413 2.92427764 1.67577894 1.97947998 0 0 Z " fill="#665CED" transform="translate(534,1052)"/>
<path d="M0 0 C0.33 0.99 0.66 1.98 1 3 C-1.31 4.98 -3.62 6.96 -6 9 C-6 6 -6 6 -4.6875 4.39453125 C-4.130625 3.87246094 -3.57375 3.35039063 -3 2.8125 C-2.443125 2.28269531 -1.88625 1.75289062 -1.3125 1.20703125 C-0.6628125 0.60955078 -0.6628125 0.60955078 0 0 Z " fill="#243248" transform="translate(762,622)"/>
<path d="M0 0 C0.33 0.99 0.66 1.98 1 3 C-1.31 4.98 -3.62 6.96 -6 9 C-6 6 -6 6 -4.6875 4.39453125 C-4.130625 3.87246094 -3.57375 3.35039063 -3 2.8125 C-2.443125 2.28269531 -1.88625 1.75289062 -1.3125 1.20703125 C-0.6628125 0.60955078 -0.6628125 0.60955078 0 0 Z " fill="#3F6EF5" transform="translate(405,579)"/>
<path d="M0 0 C1.32 0.66 2.64 1.32 4 2 C4 2.66 4 3.32 4 4 C5.32 4.33 6.64 4.66 8 5 C8 5.66 8 6.32 8 7 C4.9168649 5.80100302 1.93720508 4.52299523 -1 3 C-0.67 2.01 -0.34 1.02 0 0 Z " fill="#5355EE" transform="translate(372,952)"/>
<path d="M0 0 C3.91402949 1.26941497 5.79072873 2.51167694 8 6 C4.12867972 5.42647107 1.91827204 3.51295648 -1 1 C-0.67 0.67 -0.34 0.34 0 0 Z " fill="#4B54F4" transform="translate(582,942)"/>
<path d="M0 0 C0.33 0 0.66 0 1 0 C0.67 3.3 0.34 6.6 0 10 C-0.66 10 -1.32 10 -2 10 C-1.85950482 8.52031676 -1.71245174 7.04125484 -1.5625 5.5625 C-1.48128906 4.73878906 -1.40007813 3.91507813 -1.31640625 3.06640625 C-1 1 -1 1 0 0 Z " fill="#223044" transform="translate(696,690)"/>
<path d="M0 0 C1 2 1 2 0.44140625 4.1640625 C0.15136719 4.97617187 -0.13867188 5.78828125 -0.4375 6.625 C-0.72496094 7.44226563 -1.01242187 8.25953125 -1.30859375 9.1015625 C-1.53675781 9.72804688 -1.76492188 10.35453125 -2 11 C-2.33 11 -2.66 11 -3 11 C-3.125 4.375 -3.125 4.375 -2 1 C-1.34 0.67 -0.68 0.34 0 0 Z " fill="#458EF7" transform="translate(327,463)"/>
<path d="M0 0 C0 0.66 0 1.32 0 2 C-3.96 3.98 -3.96 3.98 -8 6 C-6.65038535 0.6015414 -5.51062674 0 0 0 Z " fill="#2390FB" transform="translate(322,323)"/>
<path d="M0 0 C2.475 0.495 2.475 0.495 5 1 C5 1.66 5 2.32 5 3 C5.66 3 6.32 3 7 3 C7.33 3.99 7.66 4.98 8 6 C5.0280615 4.87548273 2.66559313 3.77706209 0 2 C0 1.34 0 0.68 0 0 Z " fill="#595AEE" transform="translate(388,963)"/>
<path d="M0 0 C1.65 0.33 3.3 0.66 5 1 C4.67 1.66 4.34 2.32 4 3 C-2.625 3.25 -2.625 3.25 -6 1 C-3.03 1.495 -3.03 1.495 0 2 C0 1.34 0 0.68 0 0 Z " fill="#2E3B51" transform="translate(565,761)"/>
<path d="M0 0 C-5.17578125 3.22265625 -5.17578125 3.22265625 -7 4 C-7.99 3.67 -8.98 3.34 -10 3 C-4.375 -1.3125 -4.375 -1.3125 0 0 Z " fill="#183A55" transform="translate(952,702)"/>
<path d="M0 0 C0.99 0 1.98 0 3 0 C2.67 1.98 2.34 3.96 2 6 C1.01 6.33 0.02 6.66 -1 7 C-0.67 4.69 -0.34 2.38 0 0 Z " fill="#233146" transform="translate(563,694)"/>
<path d="M0 0 C1.90401138 1.90401138 2.93520439 3.33425686 3.19921875 6.046875 C3.1886578 8.03233273 3.09915043 10.0169914 3 12 C2.67 12 2.34 12 2 12 C0.70756464 7.8803623 -0.26252625 4.33168317 0 0 Z " fill="#343F51" transform="translate(920,455)"/>
<path d="M0 0 C2.3125 0.8125 2.3125 0.8125 4 2 C-0.43076923 4.09230769 -0.43076923 4.09230769 -3.3125 3.625 C-3.869375 3.41875 -4.42625 3.2125 -5 3 C-2.75 1.375 -2.75 1.375 0 0 Z " fill="#29374B" transform="translate(724,911)"/>
<path d="M0 0 C-0.33 0.99 -0.66 1.98 -1 3 C-3.0625 3.6875 -3.0625 3.6875 -5 4 C-5 3.34 -5 2.68 -5 2 C-6.98 2 -8.96 2 -11 2 C-11 1.67 -11 1.34 -11 1 C-9.54182203 0.83197949 -8.0834516 0.66562857 -6.625 0.5 C-5.81289063 0.4071875 -5.00078125 0.314375 -4.1640625 0.21875 C-2 0 -2 0 0 0 Z " fill="#CED2D8" transform="translate(576,763)"/>
<path d="M0 0 C0.66 0.66 1.32 1.32 2 2 C1.625 5.625 1.625 5.625 1 9 C-1 6 -1 6 -0.625 2.8125 C-0.41875 1.884375 -0.2125 0.95625 0 0 Z " fill="#223148" transform="translate(567,680)"/>
</svg>
